<svg width="148" height="30" viewBox="0 0 148 30" fill="none" xmlns="http://www.w3.org/2000/svg"  preserveAspectRatio="none">
<path d="M22.9169 28.6556C21.76 29.1535 19.1262 30 15.6554 30C4.77538 30 0 23.1784 0 15.5104C0 5.17842 7.58154 0.0248902 16.1477 0.0248902C19.4462 0.0248902 22.08 0.697095 23.4092 1.36929L21.9323 7.36929C20.6031 6.87136 18.8062 6.37344 16.4923 6.37344C12.0369 6.37344 8.24615 9.03734 8.24615 14.8631C8.24615 20.1909 11.3723 23.527 16.6646 23.527C18.4862 23.527 20.6277 23.2033 21.7846 22.7054L22.9169 28.6556ZM25.3785 21.6598C27.2 22.6556 29.9815 23.5021 32.96 23.5021C35.5938 23.5021 36.9231 22.6805 36.9231 21.1618C36.9231 19.6432 35.5938 18.8216 32.32 17.8257C27.3723 15.9834 24.2462 13.3195 24.2462 8.98755C24.2462 3.9834 28.5292 0 35.7908 0C39.2615 0 41.7231 0.672199 43.6923 1.49378L42.0431 7.66805C40.7138 7.17012 38.5723 6.32365 35.7908 6.32365C33.3292 6.32365 32 7.14522 32 8.48962C32 9.9834 33.6492 10.4813 37.2677 11.8257C42.3877 13.8174 44.8492 16.6556 44.8492 20.6639C44.8492 25.668 40.8862 30 32.4923 30C29.0215 30 25.5754 29.0041 23.9262 28.1577L25.3785 21.6598ZM53.4154 29.5021L52.2585 0.497925H58.5108V13.3195C58.5108 16.8299 58.3385 20.1411 58.3385 22.6556C59.4954 19.8174 60.48 16.9792 61.8092 13.4938L66.9292 0.497925H73.6985V13.3195C73.6985 16.8299 73.5262 19.8174 73.3785 22.6556H73.5508C74.5354 19.668 75.52 16.4813 76.6769 13.3195L81.6246 0.497925H88.2215L75.52 29.5021H68.7508L68.5785 17.5021C68.4062 14.166 68.5785 11.1784 68.7508 8.01659C67.5938 11.0041 66.6092 14.1909 65.1323 17.6763L60.1846 29.5021H53.4154ZM95.4338 0.497925L89.9939 29.5021H83.8892L89.3292 0.497925H95.4338ZM93.6369 29.5021L99.0769 0.497925H106.314L110.105 11.5021C111.262 15.1618 112.074 18.1743 112.738 21.3361H112.911C112.911 18.4979 113.403 15.3361 114.24 11.0041L116.209 0.497925H121.969L116.357 29.5021H110.105L105.994 17.8506C104.837 14.0166 104.025 11.3527 103.188 7.84232H103.015C102.843 10.6805 102.031 14.6639 101.194 19.3444L99.3723 29.5021H93.6369ZM127.089 24.4979C127.902 24.6722 128.738 24.6722 129.723 24.6722C133.194 24.6722 136.148 23.5021 137.969 21.3361C139.938 18.9958 140.948 16.0083 140.948 12.4979C140.948 7.84232 138.486 5.17842 133.366 5.17842C132.382 5.17842 131.397 5.3527 130.732 5.3527L127.089 24.4979ZM125.44 0.846471C127.902 0.52282 130.56 0.174269 133.342 0.174269C137.797 0.174269 141.415 1.3444 143.902 3.3361C146.215 5.3278 147.692 8.16597 147.692 12.4979C147.692 18.1743 145.231 23.0041 141.76 25.8174C138.462 28.4813 134.178 29.6514 127.902 29.6514C124.431 29.6514 121.477 29.3278 120 29.1535L125.44 0.846471Z" fill="#3A69A3" preserveAspectRatio="none"/>
</svg>
